<svg width="49" height="49" viewBox="0 0 49 49" fill="none" xmlns="http://www.w3.org/2000/svg">
<g clip-path="url(#clip0_1_305)">
<path d="M9.34451 8.15515C8.28364 8.15515 7.26622 8.57658 6.51608 9.32672C5.76593 10.0769 5.34451 11.0943 5.34451 12.1552V13.4885L6.67784 14.8218V37.4885L33.3445 24.1552L34.6778 25.4885H42.6778V12.1552C42.6778 11.0943 42.2564 10.0769 41.5063 9.32672C40.7561 8.57658 39.7387 8.15515 38.6778 8.15515H9.34451Z" fill="url(#paint0_linear_1_305)"/>
<path d="M31.5352 13.4885H5.34451V34.9805C5.34433 35.485 5.44357 35.9846 5.63655 36.4507C5.82954 36.9169 6.11248 37.3404 6.46922 37.6971C6.82595 38.0539 7.24949 38.3368 7.71562 38.5298C8.18175 38.7228 8.68134 38.822 9.18584 38.8219H22.6778L29.6792 28.3192C30.0205 27.4822 30.6034 26.7659 31.3537 26.2618C32.1039 25.7576 32.9873 25.4884 33.8912 25.4885H34.6778V16.6312C34.6778 15.7977 34.3467 14.9984 33.7574 14.409C33.168 13.8196 32.3687 13.4885 31.5352 13.4885Z" fill="url(#paint1_radial_1_305)"/>
<path d="M22.6778 38.8219V37.3885C22.6779 36.5928 22.9626 35.8233 23.4805 35.2192L30.2178 27.3565C30.357 27.1654 30.5108 26.9853 30.6778 26.8179L30.2178 27.3565C29.6491 28.1337 29.3432 29.0721 29.3445 30.0352V38.8219H22.6778Z" fill="#B8D7FF"/>
<path d="M32.8112 34.0032H34.1712C34.2299 34.239 34.3685 34.4471 34.5635 34.592C34.7586 34.7369 34.9978 34.8097 35.2405 34.7979C35.8565 34.7965 36.2618 34.4605 36.2618 33.9672C36.2618 33.4739 35.8405 33.2005 35.0045 33.2005H34.4645V32.0899H34.9338C35.7418 32.0899 36.0725 31.7925 36.0725 31.3499C36.0725 30.9085 35.7138 30.6032 35.2165 30.6032C34.9955 30.5902 34.7781 30.6633 34.6098 30.8072C34.4419 30.9505 34.3371 31.154 34.3178 31.3739H33.0045C33.0512 30.6005 33.6672 29.4885 35.2098 29.4885C36.4472 29.4885 37.3032 30.1885 37.3032 31.1739C37.3047 31.4906 37.2037 31.7993 37.0152 32.0539C36.8258 32.3085 36.5618 32.5005 36.2592 32.5939V32.6139C36.6118 32.6762 36.9301 32.8635 37.1559 33.1414C37.3817 33.4193 37.4997 33.7693 37.4885 34.1272C37.4885 35.1952 36.5018 35.9005 35.2285 35.9005C33.8765 35.9072 32.9085 35.1445 32.8112 34.0019V34.0032ZM39.8672 29.5952H40.8578V35.8099H39.5792V31.0419L38.3485 31.8712V30.6152L39.8685 29.5952H39.8672Z" fill="#8F69FF"/>
</g>
<defs>
<linearGradient id="paint0_linear_1_305" x1="36.7085" y1="28.2032" x2="14.9325" y2="-3.43418" gradientUnits="userSpaceOnUse">
<stop stop-color="#BFE8FF"/>
<stop offset="0.307" stop-color="#BFABFF"/>
<stop offset="1" stop-color="#7341FF"/>
</linearGradient>
<radialGradient id="paint1_radial_1_305" cx="0" cy="0" r="1" gradientUnits="userSpaceOnUse" gradientTransform="translate(33.5565 -7.64614) scale(59.8911 53.5211)">
<stop offset="0.503" stop-color="#6D4AFF"/>
<stop offset="0.994" stop-color="#06B8FF"/>
</radialGradient>
<clipPath id="clip0_1_305">
<rect width="48" height="48" fill="white" transform="translate(0.0111694 0.155151)"/>
</clipPath>
</defs>
</svg>
