<svg width="8" height="5" viewBox="0 0 8 5" fill="none" xmlns="http://www.w3.org/2000/svg">
<path d="M3.63816 4.5324L0.513157 1.4064C0.4543 1.34739 0.414236 1.27226 0.398019 1.19051C0.381802 1.10875 0.390157 1.02403 0.422032 0.947016C0.453907 0.870004 0.507873 0.804155 0.577124 0.757774C0.646375 0.711394 0.72781 0.686559 0.811157 0.686401H7.21116C7.58716 0.686401 7.77516 1.1404 7.50916 1.4064L4.38416 4.5324C4.33521 4.58144 4.27707 4.62035 4.21306 4.6469C4.14906 4.67345 4.08045 4.68711 4.01116 4.68711C3.94187 4.68711 3.87325 4.67345 3.80925 4.6469C3.74525 4.62035 3.68711 4.58144 3.63816 4.5324V4.5324Z" fill="#6243E6"/>
</svg>
