<svg width="49" height="49" viewBox="0 0 49 49" fill="none" xmlns="http://www.w3.org/2000/svg">
<g clip-path="url(#clip0_1_311)">
<path d="M5.3445 12.1552L10.6778 9.48853L20.0112 14.8219H36.0112V37.4885L34.6778 38.8219H9.3445C8.28364 38.8219 7.26622 38.4004 6.51607 37.6503C5.76593 36.9001 5.3445 35.8827 5.3445 34.8219V12.1552Z" fill="url(#paint0_radial_1_311)"/>
<path fill-rule="evenodd" clip-rule="evenodd" d="M19.9592 10.0565C20.643 10.5539 21.4669 10.8219 22.3125 10.8218H38.6778C39.7387 10.8218 40.7561 11.2432 41.5063 11.9934C42.2564 12.7435 42.6778 13.761 42.6778 14.8218V34.8218C42.6778 35.8827 42.2564 36.9001 41.5063 37.6502C40.7561 38.4004 39.7387 38.8218 38.6778 38.8218H34.6778V19.4885C34.6778 18.6044 34.3266 17.7566 33.7015 17.1315C33.0764 16.5063 32.2286 16.1552 31.3445 16.1552H17.3445C16.479 16.1552 15.6369 15.8744 14.9445 15.3552L11.7445 12.9552C11.0521 12.4359 10.21 12.1552 9.3445 12.1552H5.3445C5.3445 11.0943 5.76593 10.0769 6.51607 9.32672C7.26622 8.57658 8.28364 8.15515 9.3445 8.15515H16.0432C16.8888 8.1551 17.7127 8.42303 18.3965 8.92048L19.9592 10.0565V10.0565Z" fill="url(#paint1_linear_1_311)"/>
</g>
<defs>
<radialGradient id="paint0_radial_1_311" cx="0" cy="0" r="1" gradientUnits="userSpaceOnUse" gradientTransform="translate(38.5792 -10.6635) scale(57.2235 60.7359)">
<stop offset="0.556" stop-color="#6D4AFF"/>
<stop offset="1" stop-color="#FF50C3"/>
</radialGradient>
<linearGradient id="paint1_linear_1_311" x1="4.8525" y1="-7.84885" x2="51.1378" y2="43.3965" gradientUnits="userSpaceOnUse">
<stop stop-color="#7341FF"/>
<stop offset="0.359" stop-color="#B487FF"/>
<stop offset="1" stop-color="#FFC8FF"/>
</linearGradient>
<clipPath id="clip0_1_311">
<rect width="48" height="48" fill="white" transform="translate(0.0111694 0.155151)"/>
</clipPath>
</defs>
</svg>
