<svg width="17" height="17" viewBox="0 0 17 17" fill="none" xmlns="http://www.w3.org/2000/svg">
<g clip-path="url(#clip0_1_276)">
<path fill-rule="evenodd" clip-rule="evenodd" d="M8.51117 12.327C6.32517 12.327 4.03517 11.067 2.52417 8.32703C4.03417 5.58703 6.32517 4.32703 8.51117 4.32703C10.6972 4.32703 12.9872 5.58703 14.4982 8.32703C12.9882 11.067 10.6982 12.327 8.51117 12.327ZM15.4012 7.89303C12.0812 1.80503 4.94117 1.80503 1.62117 7.89303C1.54879 8.02623 1.51087 8.17543 1.51087 8.32703C1.51087 8.47863 1.54879 8.62782 1.62117 8.76103C4.94117 14.849 12.0812 14.849 15.4012 8.76103C15.4736 8.62785 15.5116 8.47864 15.5116 8.32703C15.5116 8.17541 15.4736 8.0262 15.4012 7.89303V7.89303ZM8.51117 6.32703C8.51128 6.67708 8.41952 7.02103 8.24504 7.32451C8.07057 7.62798 7.8195 7.88035 7.51693 8.05638C7.21436 8.23242 6.87089 8.32596 6.52084 8.32765C6.17079 8.32934 5.82643 8.23913 5.52217 8.06603C5.46888 8.67923 5.60549 9.29398 5.91348 9.82689C6.22147 10.3598 6.68592 10.7851 7.24384 11.0451C7.80176 11.305 8.42613 11.3871 9.03228 11.2801C9.63842 11.1731 10.197 10.8823 10.6322 10.4471C11.0675 10.0118 11.3583 9.45328 11.4653 8.84713C11.5722 8.24099 11.4902 7.61661 11.2302 7.05869C10.9702 6.50078 10.5449 6.03632 10.012 5.72834C9.47912 5.42035 8.86437 5.28374 8.25117 5.33703C8.41717 5.62903 8.51217 5.96703 8.51217 6.32603L8.51117 6.32703Z" fill="#0C0C14"/>
</g>
<defs>
<clipPath id="clip0_1_276">
<rect width="16" height="16" fill="white" transform="translate(0.511169 0.327026)"/>
</clipPath>
</defs>
</svg>
