<svg width="17" height="17" viewBox="0 0 17 17" fill="none" xmlns="http://www.w3.org/2000/svg">
<g clip-path="url(#clip0_1_286)">
<path d="M7.52679 7.96765C7.52679 7.83504 7.57947 7.70787 7.67324 7.6141C7.76701 7.52033 7.89419 7.46765 8.02679 7.46765H9.27679V11.4677H9.77679C9.9094 11.4677 10.0366 11.5203 10.1303 11.6141C10.2241 11.7079 10.2768 11.835 10.2768 11.9677C10.2768 12.1003 10.2241 12.2274 10.1303 12.3212C10.0366 12.415 9.9094 12.4677 9.77679 12.4677H7.77679C7.64419 12.4677 7.51701 12.415 7.42324 12.3212C7.32947 12.2274 7.27679 12.1003 7.27679 11.9677C7.27679 11.835 7.32947 11.7079 7.42324 11.6141C7.51701 11.5203 7.64419 11.4677 7.77679 11.4677H8.27679V8.46765H8.02679C7.89419 8.46765 7.76701 8.41497 7.67324 8.3212C7.57947 8.22744 7.52679 8.10026 7.52679 7.96765Z" fill="#6D4AFF"/>
<path d="M8.67679 6.76765C8.91549 6.76765 9.14441 6.67283 9.31319 6.50405C9.48197 6.33526 9.57679 6.10635 9.57679 5.86765C9.57679 5.62896 9.48197 5.40004 9.31319 5.23126C9.14441 5.06247 8.91549 4.96765 8.67679 4.96765C8.4381 4.96765 8.20918 5.06247 8.0404 5.23126C7.87162 5.40004 7.77679 5.62896 7.77679 5.86765C7.77679 6.10635 7.87162 6.33526 8.0404 6.50405C8.20918 6.67283 8.4381 6.76765 8.67679 6.76765V6.76765Z" fill="#6D4AFF"/>
<path fill-rule="evenodd" clip-rule="evenodd" d="M1.27679 8.96765C1.27679 6.97853 2.06697 5.07087 3.47349 3.66435C4.88002 2.25783 6.78767 1.46765 8.77679 1.46765C10.7659 1.46765 12.6736 2.25783 14.0801 3.66435C15.4866 5.07087 16.2768 6.97853 16.2768 8.96765C16.2768 10.9568 15.4866 12.8644 14.0801 14.271C12.6736 15.6775 10.7659 16.4677 8.77679 16.4677C6.78767 16.4677 4.88002 15.6775 3.47349 14.271C2.06697 12.8644 1.27679 10.9568 1.27679 8.96765V8.96765ZM8.77679 2.46765C7.05289 2.46765 5.39959 3.15247 4.1806 4.37146C2.96161 5.59044 2.27679 7.24374 2.27679 8.96765C2.27679 10.6916 2.96161 12.3449 4.1806 13.5638C5.39959 14.7828 7.05289 15.4677 8.77679 15.4677C10.5007 15.4677 12.154 14.7828 13.373 13.5638C14.592 12.3449 15.2768 10.6916 15.2768 8.96765C15.2768 7.24374 14.592 5.59044 13.373 4.37146C12.154 3.15247 10.5007 2.46765 8.77679 2.46765V2.46765Z" fill="#6D4AFF"/>
</g>
<defs>
<clipPath id="clip0_1_286">
<rect width="16" height="16" fill="white" transform="translate(0.276794 0.467651)"/>
</clipPath>
</defs>
</svg>
