<svg width="49" height="49" viewBox="0 0 49 49" fill="none" xmlns="http://www.w3.org/2000/svg">
<g clip-path="url(#clip0_1_315)">
<path fill-rule="evenodd" clip-rule="evenodd" d="M20.3405 39.0205C21.7592 41.5711 25.4032 41.7098 27.0138 39.2738L42.0338 16.5605C43.6272 14.1525 42.1032 10.9231 39.2192 10.5938L9.69517 7.23512C6.5485 6.87646 4.30717 10.1951 5.83784 12.9485L5.95784 13.1618L19.1312 22.1885L18.9712 36.5485L20.3405 39.0205V39.0205Z" fill="url(#paint0_linear_1_315)"/>
<path d="M21.1858 36.6405L22.5192 34.6538L32.6445 19.3578C33.5298 18.0205 32.6845 16.2258 31.0845 16.0418L5.9525 13.1578L18.9712 36.5605C19.0816 36.7526 19.2391 36.9134 19.4288 37.0278C19.6185 37.1421 19.8343 37.2064 20.0556 37.2144C20.277 37.2224 20.4968 37.1739 20.6943 37.0735C20.8918 36.9731 21.0605 36.8241 21.1845 36.6405H21.1858Z" fill="url(#paint1_linear_1_315)"/>
</g>
<defs>
<linearGradient id="paint0_linear_1_315" x1="39.1045" y1="39.0191" x2="15.0818" y2="-2.40754" gradientUnits="userSpaceOnUse">
<stop offset="0.066" stop-color="#8EFFEE"/>
<stop offset="0.45" stop-color="#C9C7FF"/>
<stop offset="1" stop-color="#7341FF"/>
</linearGradient>
<linearGradient id="paint1_linear_1_315" x1="41.3005" y1="-29.7808" x2="7.66183" y2="42.1712" gradientUnits="userSpaceOnUse">
<stop offset="0.48" stop-color="#6D4AFF"/>
<stop offset="0.994" stop-color="#00F0C3"/>
</linearGradient>
<clipPath id="clip0_1_315">
<rect width="48" height="48" fill="white" transform="translate(0.0111694 0.155151)"/>
</clipPath>
</defs>
</svg>
