<svg width="17" height="17" viewBox="0 0 17 17" fill="none" xmlns="http://www.w3.org/2000/svg">
<g clip-path="url(#clip0_1_253)">
<path fill-rule="evenodd" clip-rule="evenodd" d="M4.67942 8.6864H2.68742C2.77728 7.52414 3.17786 6.40739 3.84724 5.453C4.51663 4.49862 5.43022 3.74168 6.49242 3.2614C6.27233 3.55156 6.07476 3.85812 5.90142 4.1784C5.20642 5.4504 4.75742 7.0764 4.68042 8.6864H4.67942ZM4.67942 9.6864H2.68742C2.77728 10.8487 3.17786 11.9654 3.84724 12.9198C4.51663 13.8742 5.43022 14.6311 6.49242 15.1114C6.27232 14.8213 6.07475 14.5147 5.90142 14.1944C5.20642 12.9224 4.75742 11.2964 4.68042 9.6864H4.67942ZM8.66742 15.6034C8.00342 15.3844 7.33642 14.7394 6.77742 13.7154C6.16742 12.5944 5.75942 11.1374 5.68142 9.6864H8.66742V15.6034ZM11.8434 15.1114C12.0604 14.8274 12.2584 14.5184 12.4344 14.1944C13.1284 12.9224 13.5774 11.2974 13.6544 9.6864H15.6484C15.5586 10.8487 15.158 11.9654 14.4886 12.9198C13.8192 13.8742 12.9056 14.6311 11.8434 15.1114V15.1114ZM12.6534 9.6864C12.5764 11.1374 12.1684 12.5944 11.5564 13.7164C10.9984 14.7394 10.3314 15.3844 9.66742 15.6034V9.6864H12.6534V9.6864ZM13.6554 8.6864H15.6484C15.5586 7.52414 15.158 6.40739 14.4886 5.453C13.8192 4.49862 12.9056 3.74168 11.8434 3.2614C12.0604 3.5454 12.2584 3.8544 12.4344 4.1784C13.1284 5.4504 13.5774 7.0754 13.6544 8.6864H13.6554ZM9.66742 2.7694C10.3314 2.9884 10.9984 3.6344 11.5574 4.6574C12.1674 5.7784 12.5764 7.2354 12.6534 8.6864H9.66742V2.7694ZM8.66742 2.7694V8.6864H5.68042C5.75842 7.2354 6.16642 5.7784 6.77842 4.6564C7.33642 3.6354 8.00342 2.9894 8.66742 2.7704V2.7694ZM9.16742 1.6864C7.1783 1.6864 5.27064 2.47658 3.86412 3.8831C2.4576 5.28962 1.66742 7.19728 1.66742 9.1864C1.66742 11.1755 2.4576 13.0832 3.86412 14.4897C5.27064 15.8962 7.1783 16.6864 9.16742 16.6864C11.1565 16.6864 13.0642 15.8962 14.4707 14.4897C15.8772 13.0832 16.6674 11.1755 16.6674 9.1864C16.6674 7.19728 15.8772 5.28962 14.4707 3.8831C13.0642 2.47658 11.1565 1.6864 9.16742 1.6864V1.6864Z" fill="#6243E6"/>
</g>
<defs>
<clipPath id="clip0_1_253">
<rect width="16" height="16" fill="white" transform="translate(0.667419 0.686401)"/>
</clipPath>
</defs>
</svg>
